<?xml version="1.0" encoding="UTF-8"?>
<svg id="Calque_1" data-name="Calque 1" xmlns="http://www.w3.org/2000/svg" viewBox="0 0 590.72 915.02">
  <defs>
    <style>
      .cls-1 {
        fill: none;
        stroke-linecap: round;
        stroke-linejoin: round;
      }

      .cls-1, .cls-2 {
        stroke: #000;
        stroke-width: 3px;
      }

      .cls-2 {
        stroke-miterlimit: 10;
      }
    </style>
  </defs>
  <path class="cls-2" d="M96.45,782.45c-13.79.62-28.88,4.52-42.46,5.04-4.74.18-8,.09-11.78-3.02-13.87-21.94-28.79-43.45-40.7-66.58-.15-233.54,1.15-466.92,1.39-700.49,1.5-3.16,4.36-5.85,8.03-5.97L208.87,1.52l58.5,25.51c2.21,2.29,2.83,4.82,3.13,7.87,2.16,22.43-.94,46.58-1.1,69-.44,61.51.43,123.05.04,184.55l28,1.99c.5-.36-1-1.28-1-1.49v-26c0-2.59,4.17-6.29,6.3-7.7,21.66-14.22,53.94-24.2,77.17-36.83,56.73,3,113.39,7.02,170.03,11.01,7.76.55,30.25-.42,35.47,3.53,1.93,1.46,2.95,4.02,3.79,6.21-1.01,167.59-2.56,334.94-3.01,502.53-.83,4.93-5.97,9.84-9.25,13.75-15.69,18.74-35.02,40.48-52,58-3.43,3.54-7.63,9.3-12.85,8.92l-69.66-8.93v20.5c0,.67-1.81,3.74-2.45,4.55-44.74,26.04-91.76,48.8-137.31,73.69l-4.76,1.29-191.69-42.31c-4.2-.06-9.78-5.24-9.78-9.22v-79.5ZM222.45,27.44c-2.54-2.51-8.55-5.27-12.02-6.47-8.34-2.89-24.08.16-33.44.52-33.98,1.33-68.05,3.32-102,5-11.8.59-23.74.66-35.54.97l13.46,8.52,169.54-8.54ZM19.45,37.45v677.5l21.99,34.49-.04-423.54c.36-15.31,1.05-30.7,1.1-45.9.21-76.02-.26-152.04-.04-228.05l-1.62-2.38-21.39-12.11ZM252.46,43.44l-193.01,9-1,716.01,38.06-4.58c0-100.91-2.03-201.7-.81-302.67l2.33-3.67,115.99-40.06.29-2.27c-2.62-5.54-4.33-11.52-5.6-17.49-.67-3.16.34-7.74-1.41-10.59s-7.29-2.16-8.6-9.4c-1.51-8.35-1.52-32.04.21-40.32,1.31-6.27,5.54-8.42,11.56-8.95-2.74-6.72,1.71-28.5,6.47-33.02,4.83-4.58,27.32-7.96,34.53-7.97l1-244.01ZM550.45,246.46l-167.53-10.04-8.15,2.85-37.32,19.16,171.55,12.91,41.44-24.89ZM571.44,256.45l-50.01,28.7c-.44,119.94.63,239.9.07,359.84-.01,2.86-1.08,5.31-1.09,7.91-.23,45.84.25,91.71.05,137.54,1.61.37,2.04-.55,3.03-1.46,3.27-3.03,8.19-8.92,11.48-12.52,4.29-4.69,32.98-36.03,33.46-38.54.05-141.36,1.48-282.79,3.06-423.94.21-19.17-.24-38.38-.05-57.54ZM503.45,803.45V289.95c0-.25,1.18-.8.58-1.51l-188.58-13.99v19c3.6.55,9.26.92,10.56,4.94,3.06,9.47-1.79,29.02-1.63,39.46,19.16,2.56,11.83,26.56,8.76,39.79-2.52,10.84-3.99,22.35-17.59,22.91l-.05,17.85,121.22,18.27,7.28,6.72c-.45,79.49-.05,159.02-.51,238.6-.02,2.86-1.07,5.31-1.09,7.91-.22,34.97.3,69.96-.02,104.93l61.06,8.62ZM311.44,301.46c-3.76-.84-7.69-1.5-11.52-1.99-13.04-1.67-28.94-3.69-41.93-4.07-7.29-.21-14.61-.36-21.53,2.05l11.5,1.98c18.11,1.21,36.43,1.67,54.16,5.69l9.32-3.68ZM301.44,332.45l.02-24.5-78.87-7.35-5.13,19.85c7.09-3.22,23.64,1.34,24.93,9.56.31,1.96.06,3.87-.07,5.81-1.18,16.88-9.29,37.34-9.9,54.18-.04,1.19-.21,2.42.49,3.48,8.7,4.64,17.59,1.76,26.54-.05l-2.49-6.98c-1.68,1.4-4.01,1.86-5.58,3.42-2.08,2.07-1.04,4.98-3.93,4.56-.01-16.03-.39-32.5,2.13-48.36,2.27-14.29,4.14-21.7,19.81-24.18,12.24-1.94,22.32,3.96,32.04,10.55ZM305.45,311.95c.65,10.28-.48,21.16,0,31.5,1.95-.05.99-3.05,2.66-4.09,1.97-1.23,4.81-.46,6.68-1.07,2.88-.94,1.44-10.11,1.67-13.33.2-2.77,2.66-18.79,1.98-19.51l-14,4.01c-.37,1.03.98,2.03,1.01,2.49ZM239.42,330.52c-6.93-2.72-14.45-5.53-21.87-2.97l-1.09,13.9c7.17-4.5,14.08-5.75,20.98,0l1.98-10.93ZM217.45,392.45c-1.85,9.02,6.65,29.41,13.02,36.48,7.92,8.79,26.49,8.74,37.41,6.45,8.92-1.87,18.38-17.47,21.55-25.46-5.24-7.84-13.16-16.39-10.77-26.76,1.35-5.84,15.52-13.88,20.77-16.71.38,1.79-.92,2.45-1.97,3.52-2.93,2.95-15.65,11.02-16.04,14.03.69,6.99,3.37,15.64,7.74,21.19.64.81-.02,1.83,2.28,1.26,6.87-22.28,11.61-44.81,10.82-68.31-11.13-10.08-29.77-10.34-43.81-6.69v16c9.18-9.42,26.93-11.41,35.52-.02,5.64,7.49,3.7,11.82-3.19,16.85-12.41,9.05-22.66,5.83-32.33-4.83v22.5c0,.42,2.47,1.39,3.02,2.25,1.57,2.46,5.65,10.59,2.99,12.76-5.13,4.18-33.46,5.53-35.81-2.21-1.81-5.94,3.88-24.29,4.8-31.3-8.44,3.04-12.25-1.96-17.99-7.01-2.87,9.26,8.3,13.7,9.04,21.49.36,3.84-3.22,14.42-7.05,14.51.77-3.75,4.98-12.35,4.76-14.36s-5.66-9.29-7.75-10.64l.97,24.4c-.12,1.02,1.31.62,2.02.6ZM205.45,339.95v33c0,.2.93,3.9,1.99,3.49l2.1-29.56-2.14-1.96,3.05-8.46c-3-.59-3.78,1.3-5,3.49ZM216.45,347.44c5.63-.07,11.78,1.92,17.21,2.38,1.32.11,1.68.84,2.79-.89-3.21-9.63-14.99-10.59-20-1.49ZM294.45,354.44c-9.8-12.87-21.7-13.91-33.98-3.49-.13,2.46,15.1,1.32,17.47,1.51,5.35.42,11.05,2.18,16.51,1.98ZM328.32,347.59l-16.61-2.92-2.17,1.36c-5.16,14.37-5.9,30.28-8.1,45.43l18.87-.14c4.55-13.92,8.65-29,8-43.73ZM235.45,354.46l-18-3,9.54,9.02c3.72-.39,7.31-2.32,8.46-6.02ZM291.45,357.46c-10.79.55-21.35-.53-32-2,3.02,3.04,11.5,9.69,15.56,9.96,3.72.25,13.55-5.07,16.44-7.96ZM305.45,399.46c-1.53-.03-3.09-.31-4.43-1.1-1.48-.86-1.57-4.59-3.06-1.9-4.67,8.43-5.59,22.13-13.51,29.98,1.88.44,2.38-1.05,3.5-1.99,7.67-6.43,14.33-15.44,17.5-24.99ZM283.46,451.45l16.5-6.98c1.11-7.25-1.47-14.61-.52-22.02l-15.48,12.94-.5,16.06ZM226.45,437.44c.97-1.31-2.43-4.68-4.24-3.83l-84.76,29.83,158.53,27.04,104.45-40.04-79.99-12.98,8.36,3.13c4.97,2.22,4.74,15.72,2.1,18.83l-45.44,21.56-7.52.45-78.07-12.93c-3.84-2.48-3.24-17.27-.91-20.02,3.42-4.03,26.42-9.63,27.46-11.05ZM232.46,439.45l-.9,6.42,1.57,1.39,44.7,5.11,4.61-15.93c-14.62,9.24-34.15,9.29-49.98,3ZM318.45,445.46l-10.56-1.79c-1.34.18-1,2.88-2.12,3.85-1.19,1.04-22.45,8.67-24.82,8.93-4.87.53-15.66-.53-21-1.01s-26.92-3.11-30.84-5.16c-2.31-1.22-1.16-3.76-2.21-3.88l-15.46,6.04,68.42,10.94c11.21-5.07,24.1-9.5,34.94-15.06,1.33-.68,3.23-1.23,3.63-2.86ZM323.44,449.45l-38.39,16.1c-2.19,1.19-1.63,3.78-1.59,5.9l39.37-16.89.61-5.1ZM279.46,466.44l-74-10.99.04,5.95c24.65,3.52,49.31,7.53,73.94,11.05v-6.01ZM305.45,505.95v384.5l119.04-62.67c.17-27.61-.36-55.26-.08-82.87.61-62.11,1.67-124.8,2.09-186.91.22-33.18-.26-66.38-.06-99.55l-120.99,47.5ZM288.45,506.45l-176-30c.22,13.16-.26,26.38-.04,39.55.98,60.09,1.77,120.82,2.09,180.91.28,52.53-.65,105.09.39,157.61l173.57,38.93v-387Z"/>
  <path class="cls-2" d="M269.43,419.41c-14.22,11.21-32.64,13.91-42.01-4.46,3.08-5.08,8.78-11.39,15.33-9.31,1.42.45,2.28,2.45,3.34,2.66,1.97.4,6.09-4.01,12.72-.72,2.1,1.04,12.07,9.78,10.61,11.82ZM262.44,415.46c-3.49-.35-5.36-5.41-8.63-5.76-2.65-.29-5.74,2.77-7.87,2.71-2.36-.07-4.76-3.96-6.83-3.78l-5.65,4.34c-.42,2.25.98,1.39,2.47,1.49,7.76.52,15.32,1.32,23.04,1.99,1.09.09,3.73.73,3.47-.98ZM260.45,419.46l-27.99-3c4.46,6.99,11.15,9.31,19.27,7.76l8.72-4.76Z"/>
  <path class="cls-2" d="M307.45,384.43c-.89-4.17,5.45-.48,7.1-2.6,1.99-2.57,6.16-20.47,5.98-23.89-.1-1.95-.78-3.68-2.78-4.29-3.62-1.09-6.77,1.58-9.28-.71,20.61-11.89,15.39,14.41,10.75,25.77-2.69,6.6-4.35,8.25-11.77,5.71Z"/>
  <path class="cls-1" d="M262.45,288.95c4.42,5.7,11.16,4.36,17.02,5.39,4.91.86,10.06.34,14.96,1.24,4.44.82,8-.37,11.52-2.63"/>
  <path class="cls-1" d="M306.95,418.45c-4.3-.05-8.15.9-11.01,4.49-6.17,7.74-15.75,10.54-23.59,15.86-2.17,1.47-5.56,1.19-8.4,1.64-10.65,1.68-20.96.13-30.97-3.57-1.2-.44-1.92-2.07-3.05-2.9-3.28-2.41-6.65-4.69-9.98-7.03"/>
  <path class="cls-1" d="M228.45,442.95c-7.83,3-15.87,5.57-23.42,9.17-4.33,2.06-2.43,7.07-2.49,10.84-.05,3,2.42,3.19,4.9,3.57,14.52,2.19,29.01,4.59,43.51,6.93,8.17,1.32,16.3,3.05,24.52,3.84,4.25.41,9.03.09,12.91-1.51,12.19-5.03,24.02-10.95,36.11-16.24,3.18-1.39,4.8-2.97,4.53-6.59-.25-3.41-.02-6.24-4.49-7.72-3.7-1.23-6.74-4.44-10.08-6.77"/>
  <path class="cls-1" d="M216.45,324.95c5,0,10-.02,15,.02.83,0,1.71.2,2.49.5,8.23,3.16,9.59,6.86,6.53,16.99-1.15,3.79-2.27,7.62-2.97,11.5-1.35,7.47-2.35,15-3.57,22.49-.76,4.68-1.8,9.32-2.44,14.01-.46,3.39.08,5.75,4.38,7.19,9.7,3.24,18.58,1.03,27.58-2-1.02-5.69-2.79-10.61-9.02-12.2"/>
  <path class="cls-1" d="M207.95,451.95c1.67,1.17,3.2,3.04,5.02,3.38,10.29,1.91,20.64,3.47,30.98,5.11,12.66,2.02,25.33,4,38,6"/>
  <path class="cls-1" d="M234.95,299.45c1,.5,1.97,1.36,3,1.44,9.83.76,19.7,1.07,29.49,2.14,12.04,1.32,23.98,3.53,36.02,4.78,4.89.51,9.56-1.39,12.99-5.36"/>
  <path class="cls-1" d="M303.45,335.45c-4.67-2.17-9.22-4.62-14.02-6.44-9.25-3.5-18.59-3.28-28.01-.15-3.25,1.08-4.66,3.26-4.89,6.09-.45,5.81-.28,11.67-.63,17.49-.26,4.35-.98,8.67-1.44,13-.23,2.16-.46,4.33-.49,6.5-.1,6.22.78,12.55-3.43,18.07-.93,1.21-.75,3.27-1.09,4.93"/>
  <path class="cls-1" d="M212.95,333.45c-7.79-.56-10.17,4.55-10.05,10.5.19,9.66-.14,19.34.15,29,.12,3.89-.22,8.46,5.87,9.25,1.38.18,3.24,3.36,3.39,5.27.79,10.25,3.71,19.89,6.95,29.55.92,2.75-.47,6.27-.81,9.44"/>
  <path class="cls-1" d="M231.95,436.95c-1.05,2.74-3.52,4.47-2.31,8.59,1.66,5.69,5.86,4.82,9.33,5.29,13.13,1.79,26.29,3.7,39.5,4.33,5.25.25,10.66-2.69,15.98-4.23,1.36-.39,2.68-.96,4-1.49,3.32-1.33,6.3-2.85,7.11-6.97.35-1.79,1.89-3.35,2.89-5.02"/>
  <path class="cls-1" d="M321.45,341.45c1.67.67,3.28,1.53,5.01,1.96,5.66,1.44,6.61,2.39,6.97,8.54.61,10.3-2.4,20.09-4.5,29.99-.33,1.54-1.25,2.97-1.43,4.51-.76,6.65-4.11,9.41-10.97,10.87-6.78,1.44-11.39-1.23-16.58-3.87"/>
  <path class="cls-1" d="M299.95,367.95c-5,4-9.83,8.24-15.06,11.92-3.85,2.71-4.44,5.8-3.52,10.1,1.66,7.72,4.66,14.53,11.07,19.48"/>
  <path class="cls-1" d="M309.95,294.45c3.33,2.17,6.51,4.64,10.05,6.41,3.01,1.51,3.48,3.93,3.4,6.59-.16,5.51-.59,11-.95,16.5-.3,4.5-.74,9-.97,13.5-.22,4.24-1.79,5.76-6.02,5.5-3.43-.21-8.21,2.43-8.92,5.52-.98,4.26-1.44,8.64-2.07,12.98-1.52,10.33-1.26,21.35-4.97,30.82-4.12,10.51-6.24,22.17-13.9,31.3-1.59,1.89-1.47,5.22-2.13,7.89"/>
  <path class="cls-1" d="M295.95,357.45c-.5-2.17-.29-5.03-1.61-6.39-10-10.2-17.28-11.27-30.38-3.59-2.07,1.21-4.01,2.65-6.01,3.98"/>
  <path class="cls-1" d="M310.95,353.95c2.67-.33,5.41-1.22,7.98-.88,4.63.62,4.48,4.58,3.93,7.86-1.04,6.22-2.19,12.47-4.03,18.48-1.81,5.91-2.98,6.17-9.89,5.03"/>
  <path class="cls-1" d="M294.95,358.95c-3.9,5.18-9.52,7.33-15.49,9.04-6.49,1.87-10.36-2.72-15.02-5.53-2.94-1.77-5.99-3.35-8.99-5.02"/>
  <path class="cls-1" d="M322.45,447.45c-6.67,3.33-13.29,6.77-20.02,9.97-4.92,2.34-10.03,4.28-14.97,6.56-5.21,2.4-5.82,3.61-4.99,8.97.21,1.35.65,2.67.98,4"/>
  <path class="cls-1" d="M296.95,357.95l-40.5-4.5"/>
  <path class="cls-1" d="M259.95,288.45c-2.81,3.13-6.43,3.73-10.48,4.15-5.23.55-10.34,2.21-15.52,3.34-2.65.57-5.32,1.35-8,1.43-3.66.12-5.92,1.84-6.96,5.09-1.64,5.12-3.46,10.25-4.39,15.51-.62,3.53.7,7.37.24,10.96-.91,7.02-.71,13.98-.52,21.02.14,5.32-.85,10.67-1.38,16-.27,2.67-.6,5.34-1.01,8-.43,2.76-.98,5.5-1.48,8.25"/>
  <path class="cls-1" d="M265.95,418.95c-1.17-6.51-9.05-11.24-15-9-1.33.5-2.66,1.01-4.25,1.62-2.84-2.9-6.01-5.35-10.24-2.12-6.95,5.31-6.14,10.56,2.51,15.48,7.04,4,14.1,3.17,20.97-.52,1.65-.89,3.02-2.29,4.52-3.46"/>
  <path class="cls-1" d="M229.95,415.95c11.17,1.33,22.33,2.73,33.51,3.94,2.12.23,4.33-.28,6.49-.44"/>
  <path class="cls-1" d="M213.45,366.45c1.67,1,3.82,1.63,4.92,3.06,7.55,9.83,7.81,8.66,2.08,20.94-.38.81-.67,1.66-1.01,2.5"/>
  <path class="cls-1" d="M304.95,308.95c-.33,8.75-.97,17.5-.87,26.25.05,4.09,1.53,8.17,2.37,12.25"/>
  <path class="cls-1" d="M238.45,344.95c-.83-.5-1.71-.94-2.49-1.51-5.5-4.01-10.28-4.09-16.04-.54-1.63,1-3.64,1.38-5.47,2.05"/>
  <path class="cls-1" d="M236.95,353.45c-5.33-1-10.65-2.14-16.01-2.93-1.93-.29-3.99.26-5.99.43"/>
  <path class="cls-1" d="M214.45,353.95c1.83,1.17,4.09,1.98,5.42,3.57,4.13,4.92,8.67,7.62,15.08,4.43"/>
  <path class="cls-1" d="M283.45,436.45c0,2.67.13,5.34-.03,8-.19,3.18-.63,6.34-.97,9.5"/>
  <path class="cls-1" d="M218.45,393.45c-.67.33-1.33.67-2,1"/>
</svg>