<?xml version="1.0" encoding="UTF-8"?>
<svg xmlns="http://www.w3.org/2000/svg" version="1.1" viewBox="0 0 113.3858 56.6924">
  <!-- Generator: Adobe Illustrator 28.7.1, SVG Export Plug-In . SVG Version: 1.2.0 Build 142)  -->
  <g>
    <g id="Capa_1">
      <g>
        <g>
          <polygon points="33.0432 27.7614 33.0432 25.1831 32.2129 26.8606 31.6386 26.8606 30.8017 25.1831 30.8017 27.7614 29.9527 27.7614 29.9527 23.3376 30.7893 23.3376 31.9257 25.73 33.0556 23.3376 33.8921 23.3376 33.8921 27.7614 33.0432 27.7614" fill="#222221"/>
          <g>
            <path d="M36.499,27.7987c-.8917,0-1.6001-.6152-1.6001-1.5533v-2.9078h.8486v2.8768c0,.5096.2934.8138.7515.8138s.7572-.3042.7572-.8138v-2.8768h.8428v2.9078c0,.9381-.7084,1.5533-1.6,1.5533" fill="#222221"/>
            <path d="M40.3029,27.7987c-.6598,0-1.1606-.1429-1.588-.5838l.5498-.5593c.2747.2795.6473.3726,1.0506.3726.5008,0,.7693-.1925.7693-.5468,0-.1556-.0428-.286-.1344-.3726-.0855-.0807-.183-.1246-.3847-.1556l-.5253-.0745c-.3726-.0559-.6473-.1736-.8427-.3668-.2079-.2112-.3113-.4965-.3113-.8694,0-.7891.5739-1.3421,1.5142-1.3421.5987,0,1.0323.1494,1.4049.5154l-.5377.5407c-.2747-.2671-.6046-.3043-.8917-.3043-.4515,0-.6718.2546-.6718.5592,0,.1118.0369.2298.1282.3167.0859.0808.2262.1491.403.1739l.5132.0745c.3971.0559.6473.1681.8307.3416.2323.2239.3357.5469.3357.9388,0,.857-.7021,1.3418-1.612,1.3418" fill="#222221"/>
          </g>
          <path d="M42.7756,27.7613v-4.4238h2.8639v.7708h-2.0149v1.0371h1.7157v.7704h-1.7157v1.0751h2.0149v.7704h-2.8639ZM44.3511,22.9087h-.5311l.3909-1.0558h.8365l-.6963,1.0558Z" fill="#222221"/>
          <polygon points="46.5306 27.7614 46.5306 23.3376 49.3945 23.3376 49.3945 24.108 47.3795 24.108 47.3795 25.1455 49.0953 25.1455 49.0953 25.9159 47.3795 25.9159 47.3795 26.991 49.3945 26.991 49.3945 27.7614 46.5306 27.7614" fill="#222221"/>
          <g>
            <path d="M54.42,27.339c-.2871.2922-.6963.4227-1.1482.4227h-1.5697v-4.4242h1.5697c.4519,0,.8611.1304,1.1482.4227.4884.4971.4394,1.1057.4394,1.7706s.049,1.311-.4394,1.8082M53.8275,24.3815c-.1465-.18-.342-.2736-.6349-.2736h-.6415v2.883h.6415c.2929,0,.4884-.0932.6349-.2733.1589-.1987.1833-.5158.1833-1.1868s-.0244-.9505-.1833-1.1493" fill="#222221"/>
            <path d="M57.3202,27.7987c-.8917,0-1.6004-.6152-1.6004-1.5533v-2.9078h.849v2.8768c0,.5096.293.8138.7514.8138.4581,0,.7573-.3042.7573-.8138v-2.8768h.8427v2.9078c0,.9381-.7083,1.5533-1.6,1.5533" fill="#222221"/>
            <path d="M64.2014,27.9478l-.3847-.3913c-.244.1611-.5373.2422-.8792.2422-.4946,0-.8731-.1738-1.1785-.4847-.4398-.4471-.4277-1.0002-.4277-1.7644s-.0121-1.3173.4277-1.7644c.3054-.3109.6839-.4848,1.1785-.4848s.8668.1739,1.1722.4848c.4398.4471.434,1.0002.434,1.7644,0,.6645.0058,1.1554-.2689,1.5657l.3726.3788-.446.4537ZM63.481,24.3068c-.1223-.1428-.3116-.2363-.5435-.2363s-.4274.0935-.5494.2363c-.1652.1863-.2079.3913-.2079,1.2428,0,.8508.0427,1.0561.2079,1.2427.122.1429.3174.236.5494.236.1037,0,.2016-.0248.2809-.0811l-.3785-.3788.4519-.4533.3233.3291c.0676-.1925.08-.4475.08-.8946,0-.8515-.0489-1.0565-.2141-1.2428" fill="#222221"/>
            <path d="M66.9978,27.7987c-.8917,0-1.6-.6152-1.6-1.5533v-2.9078h.8489v2.8768c0,.5096.293.8138.7511.8138s.7573-.3042.7573-.8138v-2.8768h.8427v2.9078c0,.9381-.7083,1.5533-1.6,1.5533" fill="#222221"/>
          </g>
          <path d="M71.9563,27.7612l-.2564-.7824h-1.5452l-.263.7824h-.8851l1.5813-4.4238h.666l1.5879,4.4238h-.8855ZM70.9423,24.6423l-.5494,1.6095h1.0809l-.5315-1.6095Z" fill="#222221"/>
          <rect x="73.4396" y="23.3373" width=".849" height="4.4238" fill="#222221"/>
          <g>
            <path d="M78.7335,27.7614h-1.8199v-4.4241h1.7469c.8489,0,1.3436.4848,1.3436,1.2428,0,.4909-.3179.808-.5381.9136.263.1242.5987.4036.5987.9943,0,.8259-.5553,1.2734-1.3312,1.2734M78.5929,24.1081h-.8303v1.0188h.8303c.3606,0,.5622-.2049.5622-.5092,0-.3047-.2016-.5096-.5622-.5096M78.6481,25.9035h-.8855v1.0875h.8855c.3846,0,.568-.2484.568-.5468s-.1834-.5407-.568-.5407" fill="#222221"/>
            <path d="M83.2399,27.7615l-.849-1.7647h-.6107v1.7647h-.849v-4.4241h1.7041c.8851,0,1.4104.6151,1.4104,1.3545,0,.6214-.3722,1.0068-.7937,1.162l.9709,1.9076h-.983ZM82.5802,24.1082h-.8v1.1678h.8c.3722,0,.6169-.2418.6169-.5841,0-.3416-.2447-.5837-.6169-.5837" fill="#222221"/>
          </g>
          <path d="M87.4592,27.7612l-.2568-.7824h-1.5449l-.263.7824h-.8851l1.5814-4.4238h.6659l1.588,4.4238h-.8855ZM86.4451,24.6423l-.5497,1.6095h1.0809l-.5312-1.6095Z" fill="#222221"/>
          <polygon points="91.5133 27.7614 89.7913 25.0465 89.7913 27.7614 88.9423 27.7614 88.9423 23.3376 89.6996 23.3376 91.422 26.0467 91.422 23.3376 92.2706 23.3376 92.2706 27.7614 91.5133 27.7614" fill="#222221"/>
          <polygon points="93.3447 27.7614 93.3447 23.3376 94.1937 23.3376 94.1937 26.991 96.1663 26.991 96.1663 27.7614 93.3447 27.7614" fill="#222221"/>
          <polygon points="97.9056 25.9471 97.9056 27.7616 97.0628 27.7616 97.0628 25.9471 95.7554 23.3374 96.6781 23.3374 97.4899 25.1208 98.2902 23.3374 99.2126 23.3374 97.9056 25.9471" fill="#222221"/>
          <g>
            <path d="M31.0702,34.128c-.4698,0-.7938-.1242-1.1175-.4533l.5619-.5655c.1403.1428.2751.2484.5556.2484.4157,0,.6842-.2484.6842-.7584v-2.9322h.849v2.9699c0,.9757-.727,1.4911-1.5332,1.4911" fill="#222221"/>
            <path d="M36.0346,34.0905l-.2565-.7825h-1.5448l-.263.7825h-.8852l1.5814-4.4238h.666l1.5879,4.4238h-.8858ZM35.0212,30.9716l-.5497,1.6095h1.0809l-.5312-1.6095Z" fill="#222221"/>
            <g>
              <path d="M38.9101,34.128c-.476,0-.8669-.1742-1.1722-.4847-.4399-.4472-.4278-1.0002-.4278-1.7644s-.0121-1.3173.4278-1.7644c.3053-.3109.6962-.4848,1.1722-.4848.8124,0,1.4477.4724,1.6,1.3977h-.861c-.0855-.354-.3054-.6276-.7328-.6276-.232,0-.4215.0873-.5435.2301-.1652.1863-.2138.3975-.2138,1.249s.0486,1.0623.2138,1.2489c.122.1425.3115.2298.5435.2298.4274,0,.6473-.2736.7328-.6276h.861c-.1523.9257-.7938,1.398-1.6,1.398" fill="#222221"/>
              <path d="M44.0271,34.2771l-.3847-.3912c-.2443.1611-.5373.2422-.8792.2422-.4947,0-.8731-.1739-1.1789-.4848-.4394-.4471-.4273-1.0001-.4273-1.7644s-.0121-1.3172.4273-1.7643c.3058-.3109.6842-.4848,1.1789-.4848s.8668.1739,1.1722.4848c.4398.4471.4336,1.0001.4336,1.7643,0,.6645.0062,1.1555-.2685,1.5657l.3723.3788-.4457.4537ZM43.3067,30.6362c-.1223-.1428-.3116-.2364-.5435-.2364s-.4274.0936-.5498.2364c-.1648.1863-.2075.3912-.2075,1.2427,0,.8508.0427,1.0561.2075,1.2428.1224.1428.3178.236.5498.236.1037,0,.2016-.0249.2805-.0811l-.3784-.3788.4522-.4534.3233.3292c.0672-.1925.0796-.4475.0796-.8947,0-.8515-.0489-1.0564-.2137-1.2427" fill="#222221"/>
              <path d="M46.8235,34.128c-.8917,0-1.6004-.6151-1.6004-1.5532v-2.9078h.8494v2.8767c0,.5096.2929.8139.751.8139s.7577-.3043.7577-.8139v-2.8767h.8423v2.9078c0,.9381-.7083,1.5532-1.6,1.5532" fill="#222221"/>
            </g>
            <polygon points="49.4305 34.0907 49.4305 29.6669 52.2944 29.6669 52.2944 30.4373 50.2794 30.4373 50.2794 31.4748 51.9952 31.4748 51.9952 32.2452 50.2794 32.2452 50.2794 33.3203 52.2944 33.3203 52.2944 34.0907 49.4305 34.0907" fill="#222221"/>
            <g>
              <path d="M54.3827,34.128c-.6598,0-1.1606-.1428-1.588-.5837l.5498-.5593c.2747.2795.6473.3726,1.0502.3726.5012,0,.7693-.1925.7693-.5468,0-.1557-.0424-.2861-.134-.3727-.0855-.0807-.183-.1245-.3847-.1556l-.5253-.0745c-.3726-.0559-.6473-.1735-.8427-.3668-.2079-.2111-.312-.4964-.312-.8694,0-.789.5746-1.3421,1.5149-1.3421.5987,0,1.032.1494,1.4049.5155l-.5377.5406c-.2747-.267-.6046-.3043-.8913-.3043-.4519,0-.6722.2546-.6722.5593,0,.1118.0366.2298.1282.3167.0859.0807.2262.149.403.1739l.5132.0745c.3971.0559.6473.168.8307.3416.2323.2239.3357.5468.3357.9384,0,.8574-.7021,1.3421-1.612,1.3421" fill="#222221"/>
              <path d="M59.7253,34.128c-.4764,0-.8669-.1742-1.1723-.4847-.4398-.4472-.4277-1.0002-.4277-1.7644s-.0121-1.3173.4277-1.7644c.3054-.3109.6959-.4848,1.1723-.4848.8124,0,1.4473.4724,1.6,1.3977h-.861c-.0855-.354-.3054-.6276-.7328-.6276-.2327,0-.4216.0873-.5436.2301-.1651.1863-.214.3975-.214,1.249s.0489,1.0623.214,1.2489c.122.1425.3109.2298.5436.2298.4274,0,.6473-.2736.7328-.6276h.861c-.1527.9257-.7938,1.398-1.6,1.398" fill="#222221"/>
            </g>
            <polygon points="64.3782 34.0907 64.3782 32.239 62.9064 32.239 62.9064 34.0907 62.0578 34.0907 62.0578 29.6669 62.9064 29.6669 62.9064 31.4748 64.3782 31.4748 64.3782 29.6669 65.2271 29.6669 65.2271 34.0907 64.3782 34.0907" fill="#222221"/>
            <rect x="66.3011" y="29.6668" width=".849" height="4.4238" fill="#222221"/>
            <path d="M70.5331,34.0908l-.849-1.7647h-.6108v1.7647h-.8489v-4.4241h1.7041c.8851,0,1.4104.6152,1.4104,1.3545,0,.6214-.3722,1.0068-.7938,1.1624l.971,1.9072h-.983ZM69.8733,30.4375h-.8v1.1678h.8c.3723,0,.617-.2418.617-.5841,0-.3415-.2447-.5837-.617-.5837" fill="#222221"/>
            <path d="M74.7523,34.0905l-.2564-.7825h-1.5452l-.2627.7825h-.8855l1.5818-4.4238h.6655l1.588,4.4238h-.8855ZM73.7383,30.9716l-.5495,1.6095h1.0809l-.5314-1.6095Z" fill="#222221"/>
            <path d="M77.6277,34.128c-.4764,0-.8669-.1742-1.173-.4847-.4391-.4472-.427-1.0002-.427-1.7644s-.0121-1.3173.427-1.7644c.3061-.3109.6966-.4848,1.173-.4848.8124,0,1.4473.4724,1.6,1.3977h-.861c-.0855-.354-.3054-.6276-.7328-.6276-.232,0-.4216.0873-.5436.2301-.1651.1863-.2137.3975-.2137,1.249s.0486,1.0623.2137,1.2489c.122.1425.3116.2298.5436.2298.4274,0,.6473-.2736.7328-.6276h.861c-.1527.9257-.7938,1.398-1.6,1.398" fill="#222221"/>
          </g>
        </g>
        <path d="M23.1871,29.6262v1.5436c.5025.5751,1.2082,1.3678,2.1171,2.383v.5967l-.9391.69c-1.2532-.8479-2.4365-1.9238-3.5433-3.243-.7165.5715-1.2361,1.0783-1.5696,1.5119-.7933,1.0096-1.4048,1.5157-1.8305,1.5157-.1526,0-.5347-.1874-1.1344-.5452v-.5192c.7182-.7001,1.438-1.3694,2.1552-1.996v-2.0045c-.6624-.2836-1.5972-.6318-2.8179-1.052-.637-.212-1.1166-.4014-1.4514-.58v-.8232c.1769-.0935.3348-.2241.4664-.3991.8685,0,2.4618.1067,4.7715.3273.3085-.8945.4897-1.6842.5488-2.3672.0194-.3204.0696-.7825.1454-1.3957.1333-.5458.4359-.8051.901-.7631.5957.3978.8646.9145.8134,1.5338-.0247.2662-.0601.5797-.111.942-.0771.5131-.039,1.1557.1116,1.933.6719.1369,1.2841.1716,1.8325.1172.2439-.0558.817-.1674,1.7157-.3306.2823-.0548.4877-.0853.6033-.0853.3728,0,.8672.1759,1.4852.5173v.4572c-.5475.343-1.243.7097-2.0885,1.0917-.7366.3079-1.4718.6167-2.1814.9437" fill="#222221"/>
      </g>
    </g>
  </g>
</svg>